HIERARCHY
ROOT Hips
{
	OFFSET -3.958830 18.904000 13.208200
	CHANNELS 6 Xposition Yposition Zposition Zrotation Yrotation Xrotation 
	JOINT LHipJoint
	{
		OFFSET 0.000000 0.000000 0.000000
		CHANNELS 3 Zrotation Yrotation Xrotation
		JOINT LeftUpLeg
		{
			OFFSET 1.800000 -1.400000 0.085000
			CHANNELS 3 Zrotation Yrotation Xrotation
			JOINT LeftLeg
			{
				OFFSET 2.215000 -6.000000 0.000000
				CHANNELS 3 Zrotation Yrotation Xrotation
				JOINT LeftFoot
				{
					OFFSET 2.500000 -6.900000 0.000000
					CHANNELS 3 Zrotation Yrotation Xrotation
					JOINT LeftToeBase
					{
						OFFSET 0.200000 -0.500000 1.950000
						CHANNELS 3 Zrotation Yrotation Xrotation
						End Site
						{
							OFFSET 0.000000 0.000000 0.000000
						}
					}
				}
			}
		}
	}
	JOINT RHipJoint
	{
		OFFSET 0.000000 0.000000 0.000000
		CHANNELS 3 Zrotation Yrotation Xrotation
		JOINT RightUpLeg
		{
			OFFSET -1.800000 -1.400000 0.085000
			CHANNELS 3 Zrotation Yrotation Xrotation
			JOINT RightLeg
			{
				OFFSET -2.215000 -6.000000 0.000000
				CHANNELS 3 Zrotation Yrotation Xrotation
				JOINT RightFoot
				{
					OFFSET -2.500000 -6.900000 0.000000
					CHANNELS 3 Zrotation Yrotation Xrotation
					JOINT RightToeBase
					{
						OFFSET -0.200000 -0.500000 1.950000
						CHANNELS 3 Zrotation Yrotation Xrotation
						End Site
						{
							OFFSET 0.000000 0.000000 0.000000
						}
					}
				}
			}
		}
	}
	JOINT LowerBack
	{
		OFFSET 0.000000 0.000000 0.000000
		CHANNELS 3 Zrotation Yrotation Xrotation
		JOINT Spine
		{
			OFFSET -0.087000 1.940000 -0.288900
			CHANNELS 3 Zrotation Yrotation Xrotation
			JOINT Spine1
			{
				OFFSET 0.000000 1.950000 0.060000
				CHANNELS 3 Zrotation Yrotation Xrotation
				JOINT Neck
				{
					OFFSET 0.000000 0.000000 0.000000
					CHANNELS 3 Zrotation Yrotation Xrotation
					JOINT Neck1
					{
						OFFSET 0.000000 1.600000 0.340000
						CHANNELS 3 Zrotation Yrotation Xrotation
						JOINT Head
						{
							OFFSET 0.000000 1.667000 -0.240000
							CHANNELS 3 Zrotation Yrotation Xrotation
							End Site
							{
								OFFSET 0.000000 0.000000 0.000000
							}
						}
					}
				}
				JOINT LeftShoulder
				{
					OFFSET 0.000000 0.000000 0.000000
					CHANNELS 3 Zrotation Yrotation Xrotation
					JOINT LeftArm
					{
						OFFSET 2.700000 1.550000 -0.730000
						CHANNELS 3 Zrotation Yrotation Xrotation
						JOINT LeftForeArm
						{
							OFFSET 5.450000 0.000000 0.000000
							CHANNELS 3 Zrotation Yrotation Xrotation
							JOINT LeftHand
							{
								OFFSET 3.450000 0.000000 0.000000
								CHANNELS 3 Zrotation Yrotation Xrotation
								JOINT LeftHandIndex1
								{
									OFFSET 0.750000 0.000000 0.000000
									CHANNELS 3 Zrotation Yrotation Xrotation
									End Site
									{
										OFFSET 0.000000 0.000000 0.000000
									}
								}
							}
						}
					}
				}
				JOINT RightShoulder
				{
					OFFSET 0.000000 0.000000 0.000000
					CHANNELS 3 Zrotation Yrotation Xrotation
					JOINT RightArm
					{
						OFFSET -2.700000 1.550000 -0.730000
						CHANNELS 3 Zrotation Yrotation Xrotation
						JOINT RightForeArm
						{
							OFFSET -5.450000 0.000000 0.000000
							CHANNELS 3 Zrotation Yrotation Xrotation
							JOINT RightHand
							{
								OFFSET -3.450000 0.000000 0.000000
								CHANNELS 3 Zrotation Yrotation Xrotation
								JOINT RightHandIndex1
								{
									OFFSET -0.750000 0.000000 0.000000
									CHANNELS 3 Zrotation Yrotation Xrotation
									End Site
									{
										OFFSET 0.000000 0.000000 0.000000
									}
								}
							}
						}
					}
				}
			}
		}
	}
}
MOTION
Frames: 9
Frame Time: 0.016667
-0.389010 17.950440 -14.228510 10.564252 39.434480 15.235993 -15.122640 12.417653 3.811481 3.501867 -1.878704 -4.583441 -18.519066 3.972588 -4.248475 0.217010 4.639171 2.992453 0.041100 -0.040090 0.011360 18.431318 -9.847020 3.497496 -13.958830 -1.215666 -46.262383 0.846663 -6.238355 27.197915 -0.095415 -3.527638 2.865510 -0.032830 0.034630 0.083740 -4.727534 -2.193381 -8.978014 12.215761 -9.097680 18.624991 -18.099548 -3.901749 9.885576 3.890846 1.009942 -19.065533 -5.690971 -2.637514 45.522740 0.883860 -5.935010 -5.048420 -30.177777 -34.008180 12.226414 -30.452443 -29.529478 -4.896720 1.914627 -33.959088 -1.292714 -3.301350 3.139601 0.289520 -0.060700 0.101360 0.011640 20.343200 32.825319 12.898314 54.893228 9.054889 -6.594958 -2.161531 28.133703 -1.913200 2.283127 -1.231998 -0.062510 0.124070 0.095250 -0.029550 
-0.445440 17.990810 -14.124650 10.370578 39.300323 15.453412 -15.149775 12.543997 3.856446 4.140054 -1.896099 -4.867099 -18.113048 3.977029 -4.237511 0.233040 4.601885 3.004926 0.033180 -0.043560 -0.005670 18.364322 -9.920568 3.390321 -13.037842 -0.669112 -44.548556 0.842638 -5.700435 25.467473 -0.059246 -3.162925 3.014051 -0.047950 0.032670 0.075380 -4.634659 -2.330525 -8.966579 11.351363 -8.826228 18.543363 -17.278606 -3.900344 9.403210 3.762689 0.567590 -19.242595 -6.676404 -2.279291 46.029186 1.554000 -6.339240 -4.731980 -29.894255 -33.420597 12.063400 -32.433658 -28.342986 -4.258917 1.410919 -31.937721 -1.208949 -3.295346 3.143766 0.288800 -0.074680 0.105820 0.017520 20.515776 32.673169 13.101456 54.447555 8.205897 -7.576995 -1.103068 30.415749 -1.858503 2.278505 -1.225045 -0.052950 0.121820 0.091850 -0.016240 
-0.491270 18.036570 -14.030240 10.023114 39.159632 15.766528 -15.181556 12.694212 3.901664 4.516207 -1.956661 -5.450613 -17.536798 3.927450 -4.276198 0.222854 4.550600 3.024024 0.017570 -0.072040 -0.005520 18.297114 -9.977885 3.246279 -11.782871 -0.248374 -42.540582 0.512298 -4.944146 22.568268 -0.002464 -2.669877 3.207783 -0.068010 0.034880 0.080840 -4.543614 -2.558990 -8.925063 10.753934 -8.944573 17.854025 -16.859058 -4.156066 9.496645 3.848023 0.432555 -19.798108 -6.975691 -1.509959 45.901230 1.179450 -5.452470 -3.840540 -29.104647 -33.425989 12.406352 -33.599111 -27.656470 -3.618754 1.841943 -29.108347 -1.320240 -3.325377 3.141624 0.287870 -0.067960 0.100380 0.013150 19.601256 32.896739 13.096429 54.381418 8.342132 -7.913581 0.396575 31.927158 -1.624820 2.278362 -1.233692 -0.055210 0.106190 0.095040 -0.022610 
-0.538290 18.085730 -13.913140 9.802371 38.559558 16.265604 -15.210261 12.803268 3.900734 4.727902 -1.933626 -5.958552 -16.470367 3.831020 -4.388922 0.204179 4.442196 3.072227 -0.011250 -0.099060 -0.034470 18.241711 -10.006714 3.187458 -11.073659 0.175193 -40.712596 1.016528 -4.432373 19.649457 0.050064 -2.300231 3.365945 -0.084600 0.058110 0.075840 -4.417750 -2.693406 -8.896262 9.639114 -8.647734 17.078661 -16.289280 -4.176857 9.021925 3.789803 0.374853 -19.735255 -6.764856 -1.406975 44.896297 1.360270 -5.330360 -3.367690 -28.525568 -33.075768 12.058428 -35.018412 -25.779612 -2.679699 0.424826 -26.932220 -0.913970 -3.360410 3.135427 0.275420 -0.055320 0.084450 0.017170 19.243418 32.664106 13.104323 54.268538 8.197605 -8.000479 2.744829 32.939754 -1.125554 2.289315 -1.232036 -0.063440 0.109880 0.105030 -0.013940 
-0.570460 18.134670 -13.794290 9.229572 38.346893 16.426804 -15.242915 12.907009 3.877391 5.054438 -1.838426 -6.246207 -15.097379 3.727054 -4.598768 0.197419 4.323196 3.120755 -0.024230 -0.109880 -0.034390 18.184064 -10.026911 3.137563 -10.701513 0.538176 -38.325972 2.615824 -4.212587 16.783540 0.084495 -2.075399 3.468823 -0.097680 0.066540 0.082170 -4.299495 -2.816988 -8.858719 9.010959 -8.298425 15.680258 -15.844385 -4.057514 9.254031 3.939209 1.039424 -19.938456 -5.177287 -1.304090 44.605583 0.975860 -4.382750 -2.262510 -27.488810 -33.372541 12.134580 -36.583139 -24.842832 -1.207935 -0.674442 -23.914287 -0.592278 -3.415307 3.121525 0.251790 -0.034880 0.077550 0.018510 17.843535 32.635510 12.964586 54.076869 8.804042 -7.171896 4.560214 32.267689 -0.622755 2.318392 -1.242782 -0.056910 0.093880 0.098560 -0.012030 
-0.599020 18.193460 -13.678400 8.625590 37.658085 16.366187 -15.276501 13.016612 3.794601 4.972110 -1.658142 -6.599112 -13.487754 3.712919 -4.218340 0.160292 4.158825 3.178692 -0.032590 -0.115990 -0.030840 18.133208 -10.057920 3.106500 -9.997936 0.893188 -35.965340 3.632225 -3.837821 13.757147 0.110818 -1.869962 3.564786 -0.104900 0.070460 0.088400 -4.148295 -2.897958 -8.773549 8.098555 -7.873525 14.396188 -15.150183 -4.059991 9.353321 3.993844 1.593759 -19.403787 -3.766217 -1.564114 44.539648 0.442110 -3.807480 -1.661930 -25.906910 -32.967130 11.469898 -38.695935 -23.803163 0.485791 -2.887748 -21.553450 -0.108109 -3.467612 3.091170 0.238800 -0.018720 0.075420 0.016830 16.223621 31.622763 12.890094 54.951664 8.682945 -7.967209 5.974418 35.512484 -0.447484 2.301157 -1.268047 -0.053690 0.085580 0.096120 -0.013620 
-0.628320 18.253660 -13.560560 7.659856 36.364163 15.931701 -15.306068 13.106462 3.720633 5.280506 -1.506104 -6.757375 -12.447991 3.812344 -3.572128 0.146022 4.095289 3.206064 -0.056150 -0.141550 -0.050750 18.086194 -10.066039 3.117847 -9.261713 1.324886 -33.904940 4.561108 -3.543370 11.382496 0.140299 -1.781345 3.620599 -0.115980 0.098380 0.097160 -3.982243 -2.943680 -8.721400 7.042639 -7.365193 13.121321 -14.160673 -3.937875 9.597824 4.026110 2.024624 -19.256251 -2.580343 -1.376447 44.998564 0.183530 -3.164810 0.203190 -24.975550 -33.113247 11.421077 -40.248096 -22.349292 1.519497 -4.820239 -19.662649 0.219719 -3.514272 3.086680 0.209410 0.014160 0.052160 0.019220 15.327490 31.572038 12.750308 53.982287 9.717643 -6.913292 7.327444 34.859420 0.009907 2.319731 -1.280118 -0.056270 0.072620 0.104730 -0.007930 
-0.659210 18.318110 -13.463040 6.626453 35.075015 15.587732 -15.313692 13.143866 3.602511 5.291870 -1.399097 -7.196431 -11.237466 3.837680 -2.884528 0.096240 3.980388 3.242592 -0.062640 -0.144260 -0.063800 18.083852 -10.061821 3.121136 -8.490690 1.592940 -32.073282 5.205625 -3.238443 8.952107 0.155238 -1.728844 3.656343 -0.109100 0.118990 0.102360 -3.898208 -2.935234 -8.593157 6.629727 -7.222073 11.966324 -14.050683 -3.993695 9.900694 4.144982 2.228932 -18.419173 -1.816919 -1.540379 44.638694 0.306980 -3.223690 0.389410 -23.677993 -32.312349 10.787378 -41.981954 -21.869191 2.619790 -5.974614 -17.312940 0.335039 -3.573979 3.061772 0.193530 0.034350 0.035260 0.017910 13.875508 30.416526 12.418856 54.270944 10.350421 -6.844696 10.283799 36.840650 0.736593 2.317880 -1.306837 -0.060310 0.074910 0.116040 -0.004160 
-0.692170 18.376000 -13.358350 5.507186 33.372472 14.960010 -15.333472 13.187775 3.504270 5.602900 -1.240056 -7.161107 -10.356515 3.939144 -2.170334 0.089522 3.941955 3.259732 -0.079090 -0.153960 -0.081580 18.064303 -10.072786 3.130933 -7.477636 1.920701 -30.112622 5.754040 -3.014987 7.161181 0.168780 -1.741399 3.676210 -0.111230 0.148960 0.111170 -3.763850 -2.891326 -8.490263 5.780180 -6.868235 10.780906 -13.323728 -3.968110 10.089957 4.246737 2.577870 -17.787157 -0.657806 -1.283874 44.894877 0.090520 -2.500580 1.743780 -23.475565 -31.634076 10.631025 -43.322790 -20.484611 3.065267 -6.974332 -15.669953 0.406805 -3.626596 3.062981 0.157830 0.069060 0.012850 0.020540 13.607285 29.578492 11.962443 53.414654 11.626923 -5.959651 11.980077 37.307368 1.292040 2.332016 -1.324755 -0.058700 0.067530 0.123450 0.005560 
